<svg width="32" height="24" viewBox="0 0 32 24" fill="none" xmlns="http://www.w3.org/2000/svg">
<path d="M20.5753 9.92216L16.9088 1.77823L16.9071 1.77441L16.9072 1.77438C16.876 1.69663 16.8605 1.61351 16.8615 1.52977C16.8626 1.44602 16.8801 1.36331 16.9131 1.28634C16.9462 1.20937 16.9941 1.13967 17.0541 1.08121C17.1141 1.02274 17.1851 0.976656 17.2629 0.945576C17.3408 0.914496 17.424 0.899028 17.5078 0.900048C17.5916 0.901068 17.6744 0.918557 17.7515 0.951523C17.8285 0.984488 17.8983 1.03229 17.9569 1.0922C18.0151 1.15168 18.061 1.22195 18.0922 1.29904L21.8952 9.92216H30.5C30.6591 9.92216 30.8117 9.98524 30.9242 10.0976C31.0367 10.2099 31.1 10.3623 31.1 10.5213C31.1 10.6802 31.0367 10.8326 30.9242 10.9449C30.8117 11.0573 30.6591 11.1204 30.5 11.1204H29.8966L25.0525 22.7273C25.0525 22.7273 25.0525 22.7273 25.0525 22.7273C25.0074 22.8367 24.931 22.9303 24.8327 22.9964C24.7345 23.0625 24.6189 23.098 24.5005 23.0986L24.5 23.0986H7.50352C7.37837 23.1071 7.25365 23.0762 7.14696 23.0101C7.03929 22.9435 6.95549 22.8445 6.90758 22.7274L6.9076 22.7274L7 22.6892L6.90741 22.727L20.5753 9.92216ZM20.5753 9.92216H11.4247L15.0912 1.77823L15.0913 1.77827L15.0928 1.77438C15.1558 1.61735 15.1536 1.44179 15.0869 1.28634C15.0201 1.1309 14.8943 1.00834 14.7371 0.945576C14.5799 0.882811 14.4042 0.884949 14.2485 0.951523C14.0935 1.01786 13.971 1.1428 13.9078 1.29905L10.1048 9.92216H1.5C1.34093 9.92216 1.18834 9.98524 1.0758 10.0976C0.963258 10.2099 0.9 10.3623 0.9 10.5213C0.9 10.6802 0.963258 10.8326 1.0758 10.9449C1.18834 11.0573 1.34093 11.1204 1.5 11.1204H2.10316L20.5753 9.92216ZM28.5999 11.1204L24.1034 21.9004H7.89664L3.40006 11.1204H28.5999Z" fill="white" stroke="white" stroke-width="0.2"/>
</svg>
