<svg width="50" height="50" viewBox="0 0 50 50" fill="none" xmlns="http://www.w3.org/2000/svg">
<circle cx="25" cy="25" r="24.5" stroke="#828282"/>
<path d="M15.4314 20.9044C15.9234 21.2508 16.639 21.1774 17.0286 20.7386L19.7825 17.6398L23.8667 13.5692V38.9891C23.8667 39.5478 24.3761 40 25.0037 40C25.6314 40 26.1407 39.5478 26.1407 38.9891V13.824L33.0031 20.8862C33.4124 21.3081 34.131 21.356 34.6063 20.9907C35.0816 20.6254 35.1339 19.9872 34.7231 19.5646L25.7708 10.3505C25.5571 10.1301 25.247 10.0027 24.9196 10C24.9165 10 24.9135 10 24.9105 10C24.5861 10 24.2775 10.1227 24.0623 10.3376L18.0428 16.3398L15.2457 19.4844C14.8553 19.9225 14.9395 20.558 15.4314 20.9044Z" fill="#F94877"/>
</svg>
